<?xml version="1.0" encoding="utf-8"?>
<!-- Svg Vector Icons : http://www.onlinewebfonts.com/icon -->
<!DOCTYPE svg PUBLIC "-//W3C//DTD SVG 1.1//EN" "http://www.w3.org/Graphics/SVG/1.1/DTD/svg11.dtd">
<svg version="1.1" xmlns="http://www.w3.org/2000/svg" xmlns:xlink="http://www.w3.org/1999/xlink" x="0px" y="0px" viewBox="0 0 256 256" enable-background="new 0 0 256 256" xml:space="preserve">
<metadata> Svg Vector Icons : http://www.onlinewebfonts.com/icon </metadata>
<g><g><g><path fill="#000000" d="M123.7,10.5c-3.9,1.5-6.2,4.4-7.2,9.4c-0.7,3.2-1.6,5-3.1,5.8l-1.2,0.6l1.1,0.7c1,0.7,1,0.7,0.1,1.2c-0.6,0.3-1.3,0.5-1.8,0.5c-0.7,0-0.7,0.1,0.1,0.9c0.7,0.6,1,1.2,0.8,2.2c-0.1,0.9-0.1,1.2,0.2,0.7c0.2-0.3,0.7-0.6,1-0.4c0.4,0.1,0.2,0.6-0.4,1.4l-1,1.2l1.4,0.3c1.5,0.3,1.9,1.5,0.7,1.9c-0.4,0.2-0.7,0.5-0.7,0.7c0,0.6,1.6,0.5,2.3-0.2c0.5-0.5,0.6-0.3,0.4,0.7c-0.2,1,0,1.3,0.5,1.3c0.5,0,1.1-0.3,1.4-0.6c0.5-0.5,0.6-0.2,0.3,1.2c-0.4,1.9-0.2,1.9,2.2,1c0.8-0.3,0.8-0.2,0.5,1.7c-0.7,4.3-1.3,5-7.4,8c-3.1,1.5-6.5,3.1-7.5,3.6c-2.3,1-4,3.3-4.7,6.4c-0.3,1.2-0.7,5.6-0.9,9.7c-0.5,8.6-1.7,16.1-3.7,22.8c-0.8,2.8-1.8,8-2.4,12.5c-0.9,7.1-2.1,14.1-3.2,18.1c-0.2,0.9-1.1,2.3-1.9,3c-0.8,0.8-1.8,2.2-2.3,3.3c-0.5,1.1-1.5,2.6-2.3,3.6c-0.8,0.9-1.2,1.8-1,1.9c0.6,0.4,2.8-0.5,3.8-1.7c0.9-1,0.9-1,0.6,0c-0.6,2.2-1.2,6.5-1.2,9.2c0,2.3,0.1,2.9,0.7,2.9c0.4,0,0.7,0.2,0.7,0.5c0,0.6,2,0.6,2.5,0.1c0.2-0.2,0.7-0.4,1.1-0.4c1.1,0,3.8-5.6,5.1-10.3c0.6-2.4,1-5,1-7.5c0-3.2,0.3-4.6,1.4-7.8c4.2-11.5,5.1-14.5,5.5-18.3c0.6-4.5,3.5-20.5,3.9-20.9c0.1-0.1,0.2,0.5,0.2,1.3c0,0.8,0.6,4.6,1.4,8.5c1.7,8.4,1.6,9.6-1.9,17.9c-4.4,10.6-5.4,15.5-4.9,25.8c0.4,7.9,1,12.3,3.8,26.5l2.1,10.6l-0.4,7.4c-0.8,15-0.6,17.3,1.8,29.2c1.9,9.4,2.2,11.5,2.1,15.5c-0.1,2.6,0,5.3,0.2,6.1c0.5,2.1-0.4,4.8-2.8,8.3c-2.4,3.5-2.4,4.8-0.1,6.2c1.6,1,5.7,1.7,7.2,1.2c1.3-0.4,2.1-2.1,3.1-6.7c1.1-5.2,1.2-10.4,0.3-15.7c-1-6.1-0.9-12.1,0.3-18.7c0.9-4.7,1.1-7.2,1.2-17.1c0-11.3,0.9-23,2.3-33.9c0.4-2.9,0.8-8.8,1-13.1l0.3-7.7h1.2h1.2l0.3,7.9c0.2,4.4,0.6,10.2,1,13.1c1.4,9.8,2.3,22.3,2.3,33.7c0.1,9.7,0.3,12.4,1.1,17.1c1.2,6.6,1.3,12.8,0.4,18.5c-0.9,5.2-0.8,10.8,0.3,15.9c1,4.7,1.8,6.3,3.1,6.7c1.5,0.5,5.6-0.2,7.2-1.2c2.4-1.4,2.3-2.7-0.1-6.2c-2.4-3.6-3.2-6.1-2.8-8.8c0.2-1,0.3-3.8,0.2-6c-0.1-3.5,0.3-6.1,2.3-16.1c2.3-11.4,2.4-12.2,2.1-17.3c-1-19.1-1.1-17,1.5-30c3.1-15.9,3.6-19.1,3.5-28.8c0-9.3-0.6-12-3.7-19.5c-4.6-10.9-4.9-13.1-3-20.7c0.6-2.4,1.2-5.5,1.3-7.1c0.2-2.4,0.4-2.7,0.6-1.8c0.6,1.8,3,15.9,3.6,20.3c0.5,3.6,1.4,6.8,5.5,18c1.2,3.2,1.4,4.6,1.4,7.8c0,2.5,0.4,5.2,0.9,7.4c1.2,4.6,4.2,10.4,5.2,10.4c0.4,0,0.9,0.2,1.1,0.4c0.5,0.5,2.5,0.4,2.5-0.1c0-0.3,0.3-0.5,0.7-0.5c0.6,0,0.7-0.6,0.7-2.9c0-2.7-0.6-7.1-1.2-9.2l-0.3-1l0.8,1c0.9,1.1,3.2,2.1,3.9,1.7c0.2-0.1-0.2-1-1-1.9c-0.8-0.9-1.8-2.4-2.1-3.3c-0.4-0.9-1.4-2.4-2.3-3.3c-2.3-2.4-3.6-8.1-5.4-23c-0.5-3.4-1.3-8-1.9-10.1c-2.4-8.2-2.8-10.6-4.3-28.3c-0.6-8.1-1.8-10.1-7.4-12.3c-1.4-0.5-4.3-1.9-6.6-3.1c-4.5-2.4-5.4-3.4-6-7.4c-0.3-1.8-0.3-2,0.5-1.7c2.3,0.9,2.5,0.9,2-0.4c-0.2-0.7-0.5-1.6-0.5-2c0-0.6,0.1-0.6,0.8,0c1.4,1.2,2.3,1,2-0.5c-0.2-1-0.1-1.2,0.4-0.7c0.7,0.7,2.3,0.8,2.3,0.1c0-0.3-0.3-0.5-0.7-0.5c-1.2,0-0.8-0.9,0.7-1.6c1.3-0.6,1.3-0.8,0.7-1.4c-0.9-0.9-0.9-1.8,0-1.4c0.6,0.2,0.7,0,0.5-1.3c-0.2-1.3-0.1-1.6,0.7-1.9c1-0.3,1-0.3-0.2-0.7c-2.1-0.6-2.4-1-1.2-1.8l1-0.7l-1.2-0.6c-1.5-0.8-2.4-2.4-3.3-6.4c-1.4-6.1-4.6-8.9-10.6-9.2C126.7,9.9,124.8,10.1,123.7,10.5z"/></g></g></g>
</svg>