<?xml version="1.0" standalone="no"?>
<!DOCTYPE svg PUBLIC "-//W3C//DTD SVG 20010904//EN"
 "http://www.w3.org/TR/2001/REC-SVG-20010904/DTD/svg10.dtd">
<svg version="1.0" xmlns="http://www.w3.org/2000/svg"
 width="834.000000pt" height="476.000000pt" viewBox="0 0 834.000000 476.000000"
 preserveAspectRatio="xMidYMid meet">

<g transform="translate(0.000000,476.000000) scale(0.100000,-0.100000)"
fill="#000000" stroke="none">
<path d="M278 4471 c-53 -3 -99 -9 -103 -13 -16 -15 94 -559 185 -913 116
-454 226 -733 348 -883 36 -45 43 -58 34 -71 -57 -81 -169 -272 -227 -386
-210 -414 -330 -873 -352 -1341 l-6 -144 3653 0 3653 0 -8 133 c-26 493 -130
895 -340 1322 -52 105 -132 249 -178 322 -71 110 -83 134 -71 144 31 25 108
155 154 257 124 276 265 801 371 1380 17 95 28 176 25 179 -15 15 -271 23
-438 13 -269 -16 -478 -46 -791 -116 -303 -67 -713 -194 -1023 -315 l-152 -60
-143 41 c-585 166 -1203 193 -1789 79 -122 -24 -362 -84 -435 -109 l-50 -17
-150 59 c-625 246 -1287 405 -1825 438 -173 10 -185 10 -342 1z m4910 -1867
c105 -21 236 -66 324 -110 261 -131 485 -371 634 -679 30 -62 54 -115 54 -119
0 -3 -102 -6 -227 -5 l-228 0 -65 92 c-91 128 -296 333 -383 381 -122 68 -215
77 -290 28 -31 -21 -179 -179 -350 -374 l-112 -128 -244 0 c-227 0 -243 1
-230 17 8 9 182 217 387 462 269 321 381 448 400 453 41 11 244 0 330 -18z
m-2802 -29 c232 -41 468 -158 643 -321 71 -65 166 -180 227 -274 42 -66 146
-266 158 -307 l7 -23 -224 0 -225 0 -63 88 c-249 343 -504 511 -658 433 -42
-22 -138 -120 -350 -359 l-144 -162 -239 0 c-131 0 -238 3 -238 6 0 6 706 851
753 902 l31 32 117 0 c64 0 156 -7 205 -15z"/>
<path d="M7375 2901 c-60 -36 -121 -131 -159 -249 l-18 -52 60 -74 c193 -241
353 -606 432 -991 57 -274 86 -632 75 -902 l-7 -163 -3794 0 -3794 0 0 -32 c0
-18 7 -89 15 -158 8 -69 15 -128 15 -132 0 -5 1789 -8 3976 -8 l3977 0 -6 393
c-5 381 -16 540 -52 817 -79 591 -238 1079 -458 1404 -105 155 -180 197 -262
147z"/>
</g>
</svg>
